<svg width="27" height="27" viewBox="0 0 27 27" fill="none" xmlns="http://www.w3.org/2000/svg">
<path d="M10.4314 21.1121L11.2194 20.2809H26.4892V18.7971H12.6277L13.4156 17.9659H26.4892V16.4821H14.8261L15.6141 15.6531H26.4892V14.1672H17.0245L17.8125 13.3382H26.4892V11.8522H19.2207L20.0087 11.0232H26.4892V9.53723H21.4125L22.2071 8.71707H26.4892V7.23108H23.6197L24.4077 6.4021H26.4914V3.87769C26.4914 1.57815 24.3901 -0.287048 21.7988 -0.287048H4.70364C2.11233 -0.287048 0.0110403 1.57815 0.0110403 3.87769V6.39328H16.071L15.2808 7.22226H0.0110403V8.71707H13.8725L13.0846 9.54605H0.0110403V11.032H11.6741L10.8861 11.861H0.0110403V13.347H9.4757L8.69876 14.1672H0.0110403V15.6531H7.2795L6.49151 16.4821H0.0110403V17.9769H5.08771L4.28426 18.7971H0.0022094V20.2809H2.87163L2.08364 21.1121H0V22.7987C0 25.0982 2.1013 26.9612 4.69261 26.9612H21.7855C24.3768 26.9612 26.4781 25.0982 26.4781 22.7987V21.1121H10.4314Z" fill="#03C068"/>
</svg>
